<?xml version="1.0" encoding="UTF-8"?>
<svg xmlns="http://www.w3.org/2000/svg" version="1.1" viewBox="0 0 1234 215">
  <defs>
    <style>
      .cls-1 {
        fill: #f7ba2f;
      }

      .cls-2 {
        fill: #ed7f36;
      }

      .cls-3 {
        fill: #e13338;
      }

      .cls-4 {
        fill: #fbee1d;
      }

      .cls-5 {
        fill: #e13337;
      }

      .cls-6 {
        fill: #373435;
      }
    </style>
  </defs>
  <!-- Generator: Adobe Illustrator 28.7.1, SVG Export Plug-In . SVG Version: 1.2.0 Build 142)  -->
  <g>
    <g id="Layer_1">
      <g>
        <path class="cls-2" d="M328.8,108.2l-149.8,70.8h169.5c-1.3-25.5-8.3-49.5-19.6-70.8Z"/>
        <path class="cls-3" d="M102.5,17.2C37.9,47.8,0,112,0,179.1h21.4c-.2-37.4,12.7-75,39.5-105.1C118.5,9.3,217.6,3.6,282.2,61.2l-105,117.9h1.7l161.9-76.6C298.6,13.2,191.9-25,102.5,17.2c0,0,0,0,0,0Z"/>
        <path class="cls-2" d="M71,140.7c17.9-60.2,81.2-94.6,141.4-76.7l-33.6,113.3,103.4-116.1C217.6,3.6,118.5,9.3,60.9,74c-26.8,30.1-39.7,67.7-39.5,105.1h45.2c-.7-12.6.6-25.6,4.4-38.4h0Z"/>
        <path class="cls-4" d="M179.1,97.9c-44.9,0-81.2,36.1-81.4,81.4h162.3c.2-45.3-36.1-81.3-80.9-81.3h0Z"/>
        <path class="cls-1" d="M179.1,97.9c7.8,0,15.3,1.1,22.4,3.1l11-37.1c-60.2-17.9-123.6,16.5-141.4,76.7-3.8,12.8-5.1,25.8-4.4,38.4h31.1c.3-45.2,36.6-81.2,81.4-81.2h0s0,0,0,0Z"/>
        <path class="cls-6" d="M806.2,93c-16.8,0-30,2.5-39.4,6.3v80h27.2v-69.3c3.2-.9,6.1-1.7,11.5-1.7,11,0,14,5.8,14,11.8v59.3h27.2v-59.4c0-15.4-10.7-26.9-40.5-26.9h0ZM625.8,99.2v80h27.2v-69.2c4.5-1.9,11.5-2,18.2.5l5.1-17.3c-25.3-1.1-40,1.4-50.4,6ZM484.9,93c-16.6,0-28.8,3.9-35.4,6.4l5.9,14c6.1-2.5,15.4-5.2,24.4-5.2s16.6,2.5,16.6,11.3v3.9c-28.3,2.4-52.5,8.8-52.5,30.7s14,26.7,41.2,26.7,29-2.5,36.8-6.3v-50.6c0-22.9-15.7-31-37-31ZM496.4,165.6c-2.4,1.1-5.9,1.7-10,1.7-10.8,0-17.1-4.2-17.1-14.1s10.6-17,27-18.4v30.8h0ZM716.7,93c-16.6,0-28.8,3.9-35.4,6.4l5.9,14c6.1-2.5,15.3-5.2,24.4-5.2s16.6,2.5,16.6,11.3v3.9c-28.3,2.4-52.5,8.8-52.5,30.7s14,26.7,41.2,26.7,29-2.5,36.8-6.3v-50.6c0-22.9-15.7-31-37-31ZM728.2,165.6c-2.5,1.1-5.9,1.7-10,1.7-10.8,0-17.1-4.2-17.1-14.1s10.6-17,27-18.4v30.8ZM530.7,139c0,25.3,16.2,40.9,38.7,40.9s13.3-1.1,16.4-2.7v4.7c0,9.8-5.2,15.9-19.5,15.9s-17.5-2.2-23.2-5l-7,15.9c7.5,3.8,20.6,6.3,35.1,6.3,24.1,0,41.2-11,41.2-35.1v-80.7c-6.6-3.6-18.8-6.3-33.3-6.3-32.3,0-48.3,17.8-48.3,46.1h0ZM585.8,163.9c-2.3,1.3-5.4,2-9.1,2-13.6,0-19.2-9.1-19.2-28.3s5.8-30.5,19.7-30.5,6.5.5,8.5,1.4v55.3h0ZM406.8,182c0,9.8-5.2,15.9-19.5,15.9s-7.5-.4-11-1.1l-5.4,16.3c6.3,1.2,13.6,1.9,21.2,1.9,24.1,0,42.2-11.3,42.2-36.1v-104.6h-27.6v107.7h0Z"/>
        <path class="cls-6" d="M439.9,9.8V.8h-33.1v9h9.9v47.7h13.4V9.8s9.8,0,9.8,0ZM489.1,57.5V.8h-13.4v23.4h-14.3V.8h-13.4v56.7h13.4v-24.6h14.3v24.6h13.4ZM528.9,57.5v-9h-15.6v-15.6h13.6v-8.7h-13.6v-14.4h15.6V.8h-29v56.7h29ZM601.7,28.9c0-16.5-7.1-28.9-25.5-28.9s-12.3,1.3-16.4,3.3v51.8c4,2.1,9.7,3.3,17.1,3.3,18.3,0,24.9-13.1,24.9-29.4h0ZM588.2,28.7c0,14.9-3.1,20.4-11.3,20.4s-3-.2-4-.6V9.3c1.1-.4,2.2-.6,3.8-.6,8.2,0,11.5,5.9,11.5,20ZM654.5,57.5L636.1.8h-13l-18.5,56.7h12l3.6-12.1h17.1l3.5,12.1h13.8ZM635.4,37.8h-13.3l5.3-18.5c1.2-4,1.5-6.8,1.5-6.8h.2s.2,2.9,1.3,6.8l5,18.5ZM673.7,57.5V.8h-13.4v56.7h13.4ZM712.5,57.5v-9h-14.4V.8h-13.4v56.7h27.8,0ZM753.7.8h-12.6l-8.6,21.4h-.2l-8.2-21.4h-14l15,32.9v23.8h13.4v-23.8l15.2-32.9Z"/>
      </g>
      <g>
        <g>
          <path class="cls-5" d="M1106.6,183.7c9.8,4.1,19.5,8.1,29.3,12l14.7,5.8c2.5,1,4.9,2,7.4,2.7,2.5.8,5,1.5,7.5,2.4l11.2,1.7,4.1,1.3.6-4.2,23.1-152.9.6-3.9-3.9-.2-62.3-4.2-7.8-.5c-2.6-.2-5.2-.5-7.8-.4h-15.7c-10.4,0-20.9.1-31.4.3,10.3,1.6,20.7,3.1,31,4.6l15.5,2.1c2.6.4,5.2.5,7.8.6l7.8.5,62.3,4.2-3.3-4.2-23.1,152.9,4.7-2.9-11.2-1.7c-2.5-.8-5-1.7-7.5-2.5-2.5-.9-5-1.5-7.6-2.1l-15.3-3.9c-10.2-2.6-20.5-5.1-30.8-7.5"/>
          <path class="cls-5" d="M1167.8,76.9l4.4-29.4c1.3-8.8-.9-17.5-6.2-24.5s-13.2-11.3-22.1-12.3c-18.2-2-35.2,11-37.9,29.1l-1.2,7.9,7.2,1.1,1.2-7.9c2.2-14.3,15.6-24.6,30-23,6.9.8,13,4.2,17.1,9.6s5.8,12.1,4.8,19l-4.4,29.4,7.2,1.1"/>
          <path class="cls-5" d="M1173.6,77.4c-.8,5.1-5.6,8.8-10.7,8.2s-8.7-5.2-7.9-10.3c.8-5.1,5.6-8.8,10.7-8.2s8.7,5.2,7.9,10.3"/>
          <path class="cls-5" d="M1211.1,51c-.3,3.1-.6,6.3-.8,9.4-.2,3.1-.4,6.3-.5,9.4,0,1.6-.2,3.1-.2,4.7s.2,1.5.3,2.3.1,1.5.2,2.3l.9,9.3,3.5,37,7,74,5.4-3.5c-.6-.3-1-.5-1.5-.7s-.9-.4-1.4-.6c-.9-.4-1.9-.7-2.8-1-1.9-.6-3.9-1.1-5.9-1.5-2-.3-4.1,0-6.1.1s-4,.7-5.9,1.4c-3.8,1.3-7.3,3.5-10,6.2-2.8,2.7-4.9,5.8-6.6,9.1,2.5-2.7,5.3-5.1,8.3-6.9,3-1.8,6.3-2.9,9.6-3.3,1.7-.2,3.3-.2,4.9,0,1.6,0,3.2.5,4.8.7,1.6.2,3.2.5,4.8,1,.8.2,1.6.5,2.3.8.4.1.7.3,1.1.5.3.1.8.4,1,.5l6,3.3-.6-6.8-10.5-111-.9-9.3c0-.8-.1-1.6-.2-2.3,0-.8,0-1.6-.1-2.3-.2-1.5-.7-3-1-4.6-.7-3-1.5-6.1-2.3-9.1-.8-3-1.6-6.1-2.5-9.1"/>
        </g>
        <path class="cls-5" d="M912.5,79.9c-1.4-3.7-4.2-5.5-7.7-5.5s-5.1,1.5-5.1,3.9c0,8.4,25,2.4,25,21.1s-8.1,15.8-19.7,15.8-16.8-3.6-19.7-13.5l12.3-3.8c.7,4.1,3.6,7,8.3,7s6.4-1.4,6.4-4.4c0-8.9-25.7-2.7-25.7-22.1s7.5-14.1,17.8-14.1,15.7,3.1,19.1,11.8l-11.1,3.9h0Z"/>
        <path class="cls-5" d="M974.4,114.4v-31.2h-.1l-8.2,31.2h-10.8l-8.2-31.2h-.1v31.2h-12.3v-49.3h17.3l8.5,32.2h.1l8.9-32.2h17.2v49.3h-12.3,0Z"/>
        <path class="cls-5" d="M1026.6,114.4l-2.6-10.7h-13.3l-2.5,10.7h-13.5l14.2-49.3h17.6l14.2,49.3h-14ZM1013.2,92.8h8.2l-4-16.8h-.1l-4.1,16.8Z"/>
        <path class="cls-5" d="M1075,114.4l-7.1-17.8h-6.2v17.8h-13.4v-49.3h19c13.4,0,20.1,5,20.1,14.9s-2.9,10.4-7.5,12.8l9.8,21.6h-14.7ZM1067,86.1c2.7,0,6.8-.6,6.8-5.1s-3.5-5-6.2-5h-6v10.1h5.3Z"/>
        <path class="cls-5" d="M1106.9,114.4v-38.4h-12.3v-10.9h38.1v10.9h-12.3v38.4h-13.4Z"/>
        <path class="cls-5" d="M916.8,183v-4h-.1c-3.5,3.6-7.4,4.8-12.2,4.8-12.4,0-19-10.4-19-26.1s8.4-24.8,21.6-24.8,17.2,4.8,19.4,14.7l-12,2.2c-1.2-4.9-3.8-6.3-7.4-6.3-5.1,0-8.2,4.8-8.2,14.3s2.2,15.7,9,15.7,7.7-2.5,7.7-6.4v-.6h-7.7v-9.1h19.1v25.6h-10.2,0Z"/>
        <path class="cls-5" d="M964.8,133.7h13.4v28.5c0,13.8-6.3,21.6-21.5,21.6s-20.4-7.8-20.4-21.6v-28.5h13.5v31.1c0,5.3,2.4,8.2,7.3,8.2s7.8-2.9,7.8-8.2v-31.1h0Z"/>
        <path class="cls-5" d="M989.7,183v-49.3h13.4v49.3h-13.4Z"/>
        <path class="cls-5" d="M1015,183v-49.3h17.6c15.7,0,24.4,7.7,24.4,23.8s-9.1,25.5-24.9,25.5h-17.1ZM1032.6,171.5c7.5,0,10.9-5.3,10.9-13.7s-3.4-12.7-10.4-12.7h-4.8v26.4s4.3,0,4.3,0Z"/>
        <path class="cls-5" d="M1066.8,183v-49.3h34.6v10.9h-21.2v7.9h15v10.6h-15v9h21.6v10.9h-35Z"/>
        <rect class="cls-5" x="1172.5" y="200.9" width="7.4" height="5.2"/>
        <rect class="cls-5" x="1220.5" y="193.3" width="6.7" height="6.7"/>
        <rect class="cls-5" x="1196.6" y="50.1" width="5.7" height="7.4" transform="translate(408 956.7) rotate(-51.3)"/>
      </g>
    </g>
  </g>
</svg>