<?xml version="1.0" encoding="utf-8"?>
<!-- Generator: Adobe Illustrator 27.9.0, SVG Export Plug-In . SVG Version: 6.00 Build 0)  -->
<svg version="1.1" id="Layer_1" xmlns="http://www.w3.org/2000/svg" xmlns:xlink="http://www.w3.org/1999/xlink" viewBox="0 0 846.68 215.06">
        <path fill="#ED7F36" d="M328.83 108.24l-149.84 70.85 169.47 0c-1.33,-25.51 -8.28,-49.53 -19.63,-70.85z"/>
        <path fill="#E13338" d="M102.51 17.21c-64.63,30.58 -102.46,94.84 -102.5,161.89l21.4 0c-0.22,-37.38 12.68,-74.96 39.5,-105.09 57.55,-64.68 156.66,-70.42 221.31,-12.85l-104.97 117.94 1.73 0 161.9 -76.55c-42.24,-89.39 -148.99,-127.59 -238.37,-85.33l0 -0.01z"/>
        <path fill="#ED7F36" d="M71.01 140.69c17.88,-60.25 81.23,-94.62 141.45,-76.72l-33.61 113.33 103.38 -116.14c-64.65,-57.57 -163.77,-51.82 -221.32,12.86 -26.81,30.12 -39.72,67.69 -39.5,105.08l45.16 0c-0.68,-12.64 0.64,-25.58 4.44,-38.41l0 0z"/>
        <path fill="#FBEE1D" d="M179.06 97.91c-44.85,0 -81.2,36.07 -81.42,81.35l162.34 0c0.22,-45.27 -36.1,-81.35 -80.92,-81.35z"/>
        <path fill="#F7BA2F" d="M179.06 97.91c7.78,0 15.29,1.1 22.41,3.14l11 -37.08c-60.23,-17.9 -123.58,16.47 -141.45,76.72 -3.81,12.82 -5.12,25.77 -4.45,38.4l31.07 0c0.31,-45.2 36.62,-81.19 81.41,-81.19l0.01 0.01z"/>
        <path fill="#FFFFFF" d="M806.19 92.96c-16.75,0 -30.01,2.51 -39.43,6.28l0 80.02 27.21 0 0 -69.32c3.15,-0.95 6.12,-1.74 11.53,-1.74 10.99,0 13.95,5.82 13.95,11.8l0 59.26 27.23 0 0 -59.42c0,-15.41 -10.65,-26.88 -40.49,-26.88zm-180.37 6.28l0 80.02 27.22 0 0 -69.17c4.54,-1.89 11.51,-2.04 18.15,0.47l5.06 -17.29c-25.31,-1.1 -39.96,1.41 -50.43,5.97zm-140.95 -6.28c-16.57,0 -28.79,3.92 -35.42,6.44l5.93 13.99c6.11,-2.51 15.36,-5.19 24.44,-5.19 9.94,0 16.57,2.52 16.57,11.32l0 3.93c-28.27,2.36 -52.53,8.81 -52.53,30.66 0,17.61 13.97,26.72 41.19,26.72 16.23,0 28.97,-2.51 36.82,-6.28l0 -50.63c0,-22.95 -15.71,-30.96 -37,-30.96zm11.52 72.62c-2.44,1.11 -5.93,1.73 -9.95,1.73 -10.81,0 -17.1,-4.24 -17.1,-14.14 0,-13.53 10.65,-16.98 27.05,-18.4l0 30.81zm220.34 -72.62c-16.58,0 -28.79,3.92 -35.43,6.44l5.94 13.99c6.1,-2.51 15.35,-5.19 24.43,-5.19 9.94,0 16.58,2.52 16.58,11.32l0 3.93c-28.27,2.36 -52.53,8.81 -52.53,30.66 0,17.61 13.96,26.72 41.18,26.72 16.23,0 28.97,-2.51 36.82,-6.28l0 -50.63c0,-22.95 -15.71,-30.96 -36.99,-30.96zm11.52 72.62c-2.45,1.11 -5.94,1.73 -9.95,1.73 -10.82,0 -17.1,-4.24 -17.1,-14.14 0,-13.53 10.64,-16.98 27.05,-18.4l0 30.81zm-197.55 -26.56c0,25.31 16.23,40.87 38.74,40.87 7.86,0 13.26,-1.1 16.4,-2.67l0 4.71c0,9.75 -5.23,15.88 -19.54,15.88 -8.9,0 -17.45,-2.2 -23.21,-5.03l-6.98 15.88c7.51,3.77 20.59,6.29 35.08,6.29 24.08,0 41.18,-11.01 41.18,-35.06l0 -80.65c-6.63,-3.61 -18.85,-6.28 -33.33,-6.28 -32.28,0 -48.34,17.76 -48.34,46.06zm55.14 24.84c-2.26,1.26 -5.41,2.04 -9.07,2.04 -13.61,0 -19.19,-9.12 -19.19,-28.3 0,-20.28 5.76,-30.5 19.72,-30.5 3.66,0 6.45,0.48 8.54,1.42l0 55.34zm-179.05 18.18c0,9.75 -5.23,15.88 -19.54,15.88 -3.79,0 -7.49,-0.42 -10.96,-1.09l-5.4 16.29c6.27,1.22 13.56,1.94 21.24,1.94 24.08,0 42.25,-11.3 42.25,-36.13l0 -104.62 -27.59 0 0 107.73z"/>
        <path fill="#FFFFFF" d="M439.92 9.81l0 -8.99 -33.13 0 0 8.99 9.89 0 0 47.73 13.43 0 0 -47.73 9.81 0zm49.21 47.73l0 -56.72 -13.43 0 0 23.41 -14.34 0 0 -23.41 -13.44 0 0 56.72 13.44 0 0 -24.57 14.34 0 0 24.57 13.43 0zm39.73 0l0 -8.99 -15.58 0 0 -15.58 13.6 0 0 -8.74 -13.6 0 0 -14.42 15.58 0 0 -8.99 -29.01 0 0 56.72 29.01 0zm72.87 -28.61c0,-16.48 -7.09,-28.93 -25.55,-28.93 -6.93,0 -12.29,1.32 -16.41,3.3l0 51.76c3.96,2.06 9.73,3.3 17.07,3.3 18.29,0 24.89,-13.11 24.89,-29.43zm-13.52 -0.24c0,14.91 -3.13,20.44 -11.29,20.44 -1.57,0 -2.97,-0.25 -3.96,-0.58l0 -39.24c1.07,-0.41 2.23,-0.57 3.79,-0.57 8.16,0 11.46,5.93 11.46,19.95zm66.27 28.85l-18.38 -56.72 -13.02 0 -18.47 56.72 11.96 0 3.62 -12.12 17.06 0 3.47 12.12 13.76 0zm-19.04 -19.79l-13.27 0 5.28 -18.46c1.15,-4.04 1.48,-6.84 1.48,-6.84l0.16 0c0,0 0.25,2.88 1.32,6.84l5.03 18.46zm38.25 19.79l0 -56.72 -13.36 0 0 56.72 13.36 0zm38.82 0l0 -8.99 -14.42 0 0 -47.73 -13.36 0 0 56.72 27.78 0zm41.21 -56.72l-12.61 0 -8.57 21.44 -0.16 0 -8.16 -21.44 -14.02 0 15 32.89 0 23.83 13.36 0 0 -23.83 15.16 -32.89z"/>
   
</svg>
